<svg width="24" height="24" viewBox="0 0 24 24" fill="none" xmlns="http://www.w3.org/2000/svg">
  <!-- Top Pins -->
  <rect x="6" y="1" width="2" height="3" rx="0.5" fill="#000"/>
  <rect x="11" y="1" width="2" height="3" rx="0.5" fill="#000"/>
  <rect x="16" y="1" width="2" height="3" rx="0.5" fill="#000"/>

  <!-- Bottom Pins -->
  <rect x="6" y="20" width="2" height="3" rx="0.5" fill="#000"/>
  <rect x="11" y="20" width="2" height="3" rx="0.5" fill="#000"/>
  <rect x="16" y="20" width="2" height="3" rx="0.5" fill="#000"/>

  <!-- Left Pins -->
  <rect x="1" y="6" width="3" height="2" rx="0.5" fill="#000"/>
  <rect x="1" y="11" width="3" height="2" rx="0.5" fill="#000"/>
  <rect x="1" y="16" width="3" height="2" rx="0.5" fill="#000"/>

  <!-- Right Pins -->
  <rect x="20" y="6" width="3" height="2" rx="0.5" fill="#000"/>
  <rect x="20" y="11" width="3" height="2" rx="0.5" fill="#000"/>
  <rect x="20" y="16" width="3" height="2" rx="0.5" fill="#000"/>

  <!-- Main Body -->
  <rect x="4" y="4" width="16" height="16" rx="2" stroke="#000" stroke-width="2" fill="none"/>

  <!-- Inner Die -->
  <rect x="8" y="8" width="8" height="8" rx="1" fill="#000"/>
</svg>
